#!OML:ASF F:\VICON\USERDATA\INSTALL\rory3\rory3.ASF
:FULLY-SPECIFIED
:DEGREES
703
root 3.66983 18.1015 0.622445 11.944 36.1676 3.82015
lowerback -6.92423 0.0187133 -0.586054
upperback -1.88912 0.100026 -0.770008
thorax 1.93387 0.0553744 -0.454427
lowerneck -18.3575 0.33213 3.76479
upperneck 22.3422 0.0540688 -2.51806
head 10.1653 0.0722859 -1.50814
rclavicle -7.90169e-015 9.93923e-015
rhumerus -27.9192 12.2017 -90.9689
rradius 35.3398
rwrist -0.944653
rhand -20.6881 8.96006
rfingers 7.12502
rthumb 5.67549 -20.9439
lclavicle -7.90169e-015 9.93923e-015
lhumerus -44.7512 -12.209 87.8099
lradius 33.5428
lwrist 12.1076
lhand -7.31091 25.9198
lfingers 7.12502
lthumb 18.5718 55.0533
rfemur -17.5974 -4.41613 20.7094
rtibia 30.7242
rfoot -21.5735 7.0233
rtoes 1.36917
lfemur -35.1725 10.4168 -23.3223
ltibia 56.987
lfoot -13.3763 -3.97779
ltoes -17.8463
704
root 3.7292 18.0815 0.721663 11.9636 36.0077 3.70661
lowerback -6.99193 0.0888185 -0.510684
upperback -1.9352 0.188632 -0.763322
thorax 1.92459 0.0999674 -0.482307
lowerneck -18.2868 0.334178 3.76825
upperneck 22.2782 0.0786903 -2.5986
head 10.1296 0.0739773 -1.53281
rclavicle 1.14065e-013 1.39149e-015
rhumerus -27.8659 12.343 -91.0871
rradius 36.0997
rwrist -1.44596
rhand -20.3605 9.15972
rfingers 7.12502
rthumb 5.99176 -20.7356
lclavicle 1.14065e-013 1.39149e-015
lhumerus -44.7104 -12.2479 87.8958
lradius 33.582
lwrist 12.0985
lhand -7.40277 25.9858
lfingers 7.12502
lthumb 18.4834 55.1277
rfemur -17.2424 -4.19254 20.7869
rtibia 30.689
rfoot -21.6507 7.22532
rtoes 2.19782
lfemur -35.696 10.5987 -23.6051
ltibia 55.3244
lfoot -13.626 -4.06367
ltoes -19.3186
705
root 3.79089 18.0687 0.823149 11.9687 35.8699 3.56741
lowerback -7.11923 0.145986 -0.405388
upperback -1.93014 0.258584 -0.76156
thorax 2.00135 0.13511 -0.533362
lowerneck -18.3309 0.3488 3.76647
upperneck 22.2437 0.0975731 -2.6011
head 10.1262 0.0814546 -1.53062
rclavicle 5.00192e-014 -2.5842e-015
rhumerus -27.776 12.6667 -91.2493
rradius 36.8564
rwrist -1.79807
rhand -20.3202 9.22222
rfingers 7.12502
rthumb 6.03067 -20.672
lclavicle 5.00192e-014 -2.5842e-015
lhumerus -44.5511 -12.2883 87.9507
lradius 33.576
lwrist 12.1531
lhand -7.66172 25.9607
lfingers 7.12502
lthumb 18.2343 55.1261
rfemur -16.8087 -3.96613 20.8827
rtibia 30.5275
rfoot -21.5231 7.49029
rtoes 5.51689
lfemur -36.1053 10.6445 -23.8312
ltibia 53.4995
lfoot -13.7154 -4.16838
ltoes -20.1664
706
root 3.85794 18.0655 0.927813 11.9522 35.8233 3.4243
lowerback -7.28266 0.160665 -0.256765
upperback -1.91359 0.268787 -0.758814
thorax 2.10994 0.140656 -0.61271
lowerneck -18.3814 0.396447 3.81607
upperneck 22.2412 0.159154 -2.64803
head 10.1371 0.107986 -1.54722
rclavicle -4.2689e-014 -8.54774e-015
rhumerus -27.6575 12.9624 -91.4115
rradius 37.4985
rwrist -2.04366
rhand -20.3809 9.48851
rfingers 7.12502
rthumb 5.97209 -20.4073
lclavicle -4.2689e-014 -8.54774e-015
lhumerus -44.4279 -12.3066 87.9971
lradius 33.6008
lwrist 12.3035
lhand -7.67568 26.0572
lfingers 7.12502
lthumb 18.2209 55.2238
rfemur -16.2741 -3.95579 20.9935
rtibia 30.2665
rfoot -21.8808 7.44881
rtoes 4.87376
lfemur -36.4104 10.5888 -24.0495
ltibia 51.502
lfoot -13.8414 -4.05262
ltoes -21.2999
707
root 3.92495 18.0614 1.02993 11.9239 35.7713 3.34251
lowerback -7.32749 0.176692 -0.165717
upperback -1.93165 0.283369 -0.745288
thorax 2.11673 0.148269 -0.648529
lowerneck -18.3117 0.428744 3.86432
upperneck 22.1854 0.219842 -2.75629
head 10.1062 0.126951 -1.58429
rclavicle 2.75565e-014 9.93923e-016
rhumerus -27.5357 13.1079 -91.5035
rradius 37.9219
rwrist -2.07131
rhand -20.3184 9.96715
rfingers 7.12502
rthumb 6.03245 -19.927
lclavicle 2.75565e-014 9.93923e-016
lhumerus -44.3425 -12.1798 88.0185
lradius 33.5596
lwrist 12.2842
lhand -7.3748 26.2049
lfingers 7.12502
lthumb 18.5103 55.3443
rfemur -15.6289 -3.95378 21.0406
rtibia 29.868
rfoot -22.3982 7.42082
rtoes 2.10734
lfemur -36.5769 10.5035 -24.2907
ltibia 49.3714
lfoot -13.9681 -4.02439
ltoes -21.8639
708
root 3.9917 18.0589 1.1333 12.0094 35.6526 3.41424
lowerback -7.40447 0.151348 -0.289721
upperback -1.98414 0.258497 -0.704129
thorax 2.10442 0.135668 -0.538593
lowerneck -18.0836 0.476704 3.85001
upperneck 22.0446 0.328878 -2.87506
head 10.017 0.162052 -1.60626
rclavicle 5.14604e-014 1.51076e-014
rhumerus -27.5261 13.3297 -91.5807
rradius 38.4191
rwrist -1.97246
rhand -20.103 10.268
rfingers 7.12502
rthumb 6.24036 -19.6201
lclavicle 5.14604e-014 1.51076e-014
lhumerus -44.3415 -11.8848 88.088
lradius 33.5108
lwrist 12.1425
lhand -7.39407 26.1626
lfingers 7.12502
lthumb 18.4918 55.3037
rfemur -14.9701 -4.0051 20.9458
rtibia 29.3663
rfoot -22.5075 7.65154
rtoes 2.74649
lfemur -36.6913 10.4165 -24.6287
ltibia 47.1703
lfoot -13.9071 -4.39749
ltoes -20.3894
709
root 4.05825 18.0615 1.239 12.0083 35.5495 3.39994
lowerback -7.47595 0.094661 -0.352885
upperback -2.03103 0.186324 -0.62319
thorax 2.09479 0.0996487 -0.426223
lowerneck -17.7893 0.55087 3.71201
upperneck 21.8812 0.492738 -2.91618
head 9.9094 0.221976 -1.57229
rclavicle 4.22542e-014 1.47101e-014
rhumerus -27.5263 13.6476 -91.6734
rradius 38.8714
rwrist -1.77749
rhand -19.971 10.347
rfingers 7.12502
rthumb 6.36778 -19.5372
lclavicle 4.22542e-014 1.47101e-014
lhumerus -44.3732 -11.3648 88.0809
lradius 33.4257
lwrist 11.9184
lhand -7.58608 25.9833
lfingers 7.12502
lthumb 18.3071 55.1418
rfemur -14.2442 -4.16404 20.9274
rtibia 28.815
rfoot -22.3651 8.04711
rtoes 4.48845
lfemur -36.7641 10.3592 -24.8868
ltibia 44.9723
lfoot -13.9501 -4.62407
ltoes -20.5908
710
root 4.12797 18.0633 1.34202 11.9205 35.497 3.24268
lowerback -7.52593 0.0788765 -0.204911
upperback -2.06856 0.153522 -0.58343
thorax 2.08396 0.0837899 -0.47136
lowerneck -17.6318 0.6033 3.68356
upperneck 21.8391 0.58946 -2.95294
head 9.86859 0.260963 -1.56634
rclavicle -3.06874e-015 -1.15295e-014
rhumerus -27.5857 14.0407 -91.8529
rradius 39.4353
rwrist -1.85231
rhand -20.1464 10.2453
rfingers 7.12502
rthumb 6.19846 -19.644
lclavicle -3.06874e-015 -1.15295e-014
lhumerus -44.3891 -11.2534 88.1345
lradius 33.4323
lwrist 12.015
lhand -7.65979 26.1009
lfingers 7.12502
lthumb 18.2362 55.266
rfemur -13.5045 -4.40909 21.0257
rtibia 28.2167
rfoot -22.256 8.44502
rtoes 4.81985
lfemur -36.774 10.4515 -25.1612
ltibia 42.7831
lfoot -14.4241 -4.28014
ltoes -22.7346
711
root 4.19753 18.0656 1.44525 11.8923 35.4017 3.1301
lowerback -7.60343 0.129601 -0.112824
upperback -2.05402 0.215318 -0.61536
thorax 2.14283 0.114888 -0.550158
lowerneck -17.843 0.618522 3.82466
upperneck 21.974 0.578575 -3.01076
head 9.95639 0.260357 -1.61399
rclavicle -4.5062e-014 3.18055e-015
rhumerus -27.585 14.2407 -92.0611
rradius 40.1136
rwrist -2.10789
rhand -20.3515 10.0137
rfingers 7.12502
rthumb 6.00045 -19.8813
lclavicle -4.5062e-014 3.18055e-015
lhumerus -44.2087 -11.5118 88.1936
lradius 33.3598
lwrist 12.2425
lhand -7.5895 26.1089
lfingers 7.12502
lthumb 18.3038 55.2677
rfemur -12.76 -4.42894 21.0836
rtibia 27.5541
rfoot -22.1669 8.4885
rtoes 4.60253
lfemur -36.7618 10.6954 -25.5521
ltibia 40.5444
lfoot -14.8711 -3.96715
ltoes -24.7077
712
root 4.26613 18.0678 1.54982 11.8464 35.2679 2.94457
lowerback -7.71428 0.223269 0.0276483
upperback -2.01352 0.330586 -0.653837
thorax 2.24814 0.172889 -0.65756
lowerneck -18.1431 0.621189 4.02445
upperneck 22.0938 0.537887 -3.10964
head 10.0548 0.245235 -1.69047
rclavicle -4.11546e-014 2.66371e-014
rhumerus -27.4054 14.1798 -92.2196
rradius 40.5851
rwrist -2.19227
rhand -20.4037 9.80576
rfingers 7.12502
rthumb 5.95005 -20.0907
lclavicle -4.11546e-014 2.66371e-014
lhumerus -43.9396 -11.8067 88.1995
lradius 33.2883
lwrist 12.2611
lhand -7.59589 26.11
lfingers 7.12502
lthumb 18.2976 55.2694
rfemur -12.028 -4.3553 21.2163
rtibia 26.8654
rfoot -22.2164 8.44807
rtoes 4.2608
lfemur -36.8289 10.785 -25.7323
ltibia 38.2623
lfoot -14.9474 -4.0722
ltoes -26.1239
